<svg id="instagram-seeklogo.com" xmlns="http://www.w3.org/2000/svg" width="38" height="38" viewBox="0 0 38 38">
  <path id="Path_90" data-name="Path 90" d="M19,3.423c5.073,0,5.674.019,7.678.111a10.517,10.517,0,0,1,3.528.654A5.888,5.888,0,0,1,32.39,5.61a5.886,5.886,0,0,1,1.421,2.185,10.514,10.514,0,0,1,.654,3.528c.091,2,.111,2.6.111,7.678s-.019,5.674-.111,7.678a10.514,10.514,0,0,1-.654,3.528,6.292,6.292,0,0,1-3.606,3.606,10.514,10.514,0,0,1-3.528.654c-2,.091-2.6.111-7.678.111s-5.674-.019-7.678-.111a10.513,10.513,0,0,1-3.528-.654A5.886,5.886,0,0,1,5.61,32.39a5.886,5.886,0,0,1-1.421-2.185,10.514,10.514,0,0,1-.654-3.528c-.091-2-.111-2.6-.111-7.678s.019-5.674.111-7.678a10.514,10.514,0,0,1,.654-3.528A5.886,5.886,0,0,1,5.61,5.61,5.887,5.887,0,0,1,7.794,4.188a10.515,10.515,0,0,1,3.528-.654c2-.091,2.6-.111,7.678-.111M19,0c-5.16,0-5.807.022-7.834.114A13.946,13.946,0,0,0,6.554,1,9.313,9.313,0,0,0,3.189,3.189,9.313,9.313,0,0,0,1,6.554a13.946,13.946,0,0,0-.883,4.612C.022,13.193,0,13.84,0,19s.022,5.807.114,7.834A13.946,13.946,0,0,0,1,31.446a9.314,9.314,0,0,0,2.191,3.365A9.313,9.313,0,0,0,6.554,37a13.946,13.946,0,0,0,4.612.883C13.193,37.978,13.84,38,19,38s5.807-.022,7.834-.114A13.946,13.946,0,0,0,31.446,37,9.716,9.716,0,0,0,37,31.446a13.946,13.946,0,0,0,.883-4.612C37.978,24.807,38,24.16,38,19s-.022-5.807-.114-7.834A13.946,13.946,0,0,0,37,6.554a9.313,9.313,0,0,0-2.191-3.365A9.313,9.313,0,0,0,31.446,1,13.946,13.946,0,0,0,26.834.114C24.807.022,24.16,0,19,0Zm0,9.243A9.757,9.757,0,1,0,28.757,19,9.757,9.757,0,0,0,19,9.243Zm0,16.09A6.333,6.333,0,1,1,25.333,19,6.333,6.333,0,0,1,19,25.333ZM31.422,8.858a2.28,2.28,0,1,1-2.28-2.28A2.28,2.28,0,0,1,31.422,8.858Z" fill="#fcf9f4"/>
</svg>
