<svg xmlns="http://www.w3.org/2000/svg" width="1320.984" height="956.996" viewBox="0 0 1320.984 956.996">
  <path id="Path_70" data-name="Path 70" d="M70.77,954.967c2.817-1.362,137.711,1.363,169.8,2.028,2.817,0,76.4-5.418,127.369-4.753,23.59.7,276.391.7,281.144.7h6.6c15.1,0,251.877,3.39,266,3.39,93.392,1.363,93.392-2.028,186.784-1.363,93.392,0,203.772-5.418,203.772-5.418s-1.892-14.956-1.892-25.127c.968-2.725,6.6-74.683,7.57-147.306,0-10.2-4.753-21.071-4.753-31.242,0-4.753,4.753-10.171,4.753-14.924.924-55.006-.968-99.112-.968-99.112-2.817-13.593,0-37.357-3.785-59.759,0-4.753,0,4.087.968,1.362-.968-5.45-1.892-12.231-.968-25.127,0-.665,1.937,2.028,1.937,1.362-.969-35.995-4.753-50.919-3.785-91.666,0-1.331.924-88.244.924-86.185,1.892-10.2,8.494-28.517,8.494-33.967,0,5.45.968-70.6-.924-105.228-.968-1.363,0-18.314-.968-48.194,0,0-5.677-34.6-4.709-24.43-1.892-29.214.969-14.956-1.892-33.935-.924-2.06-1.892-2.06-1.892-4.087-.924-6.781,5.677-5.418,5.677-19.677.924,11.534,0-10.2.924,3.39,3.785-31.242-2.817-40.748-3.785-48.891-.924,6.781.968-31.907.968-32.573,0-4.087-5.677-13.593-5.677-19.011-3.741,0-83.93-1.362-86.79.665,16.064.7,15.1,0,31.16,0-17.913.7-36.794,0-17.913-1.362-9.463-1.331-35.869,1.362-25.483-1.331-15.1,3.39-182.075,0-187.752-.7-34.249,0-51.282,4.344-84.251,3.53-1.271-.031-33.655-4.2-53.46-4.892,4.709.7-8.494-.665-7.57-.665-13.2-1.362-52.814.665-70.726.665-5.677,0-7.57,1.362-18.881,1.362,2.817-.665-.968,1.362-18.881,1.362-1.892,0-256.586-.665-280.176-2.725,7.57,0-58.491,7.478-64.124,6.781,2.817.7-10.387-3.39-40.578-4.056C372.644,3.2,123.584,3.2,121.691,3.2c-7.526,0-56.6-1.362-112.229,0C8.494,7.252,14.172,64.951,15.1,72.429c1.892-11.534-8.45,95.722-7.526,80.1,0,8.143,6.6,34.632,5.633,42.11,3.785-6.115-6.558,25.792-5.633,37.326-.924.665-.924,30.545-.924,31.907C5.677,286.94,15.1,367.739,13.2,374.519c-2.817,1.362-9.418,55.672-7.526,65.874-.924-3.422,0,12.2,0,20.342-.924,24.461,3.785,41.413,2.817,54.309C9.462,517.77.968,614.158,0,616.217c0,10.836,12.279,25.126,12.279,26.457,0,1.362,1.892,1.362,1.892,3.39,0,9.506-7.526,21.071-7.526,33.967,0,8.809,1.848,40.716,1.848,43.441,0,12.231-4.709,40.748-4.709,42.776S7.57,914.917,6.646,922.395c0,1.363-6.646,21.039-6.646,24.43,1.892,0,53.782,8.808,70.77,8.143" transform="translate(0 0)" fill="#a04830" fill-rule="evenodd"/>
</svg>
