<svg xmlns="http://www.w3.org/2000/svg" width="1920.006" height="6.658" viewBox="0 0 1920.006 6.658">
  <path id="separator_squigglyline" d="M1920.017,4.233c-5.528,0-124.054-.972-128.284.474,23.743.5,22.311,0,46.054,0-26.474.5-54.379,0-26.474-.972-13.989-.948-53.018.972-37.664-.948-22.315,2.416-218.9,2.89-234.25,3.359-13.921,0-34.846-3.359-43.256-3.864-52.955,0-78.068,3.39-131.014,2.418-11.187-.476-43.256-2.892-72.531-3.39,6.965.5-12.556-.474-11.187-.474-19.513-.972-78.063.474-104.537.474-8.41,0-11.187.972-27.906.972,4.163-.474-1.428.973-27.906.973-2.8,0-90.615,3.388-128.284,2.89-1.365,0-250.969-3.359-285.84-4.83,11.187,0-86.453,5.332-94.778,4.83,4.163.5-15.35-2.416-59.975-2.89-15.35-.476-27.906,2.416-16.719,2.416-145.067,0-298.4.474-292.864.474a456.875,456.875,0,0,1-48.8-3.852c-9.26.378-18.583.545-27.906.5-11.124,0-83.659-.972-165.881,0" transform="translate(-0.011 -0.044)" fill="none" stroke="#3f3a31" stroke-width="1" opacity="0.9"/>
</svg>
