<svg xmlns="http://www.w3.org/2000/svg" width="1199.347" height="773.614" viewBox="0 0 1199.347 773.614">
  <path id="shape_E_beije" d="M64.254,771.975c2.557-1.1,125.031,1.1,154.161,1.639,2.557,0,69.368-4.38,115.641-3.842,21.418.563,250.941.563,255.257.563h5.994c13.706,0,228.684,2.741,241.511,2.741,84.792,1.1,84.792-1.639,169.585-1.1,84.792,0,185.009-4.38,185.009-4.38a181.861,181.861,0,0,1-1.718-20.312c.879-2.2,5.994-60.372,6.873-119.079,0-8.248-4.315-17.033-4.315-25.255,0-3.842,4.315-8.222,4.315-12.064.839-44.466-.879-80.12-.879-80.12-2.557-10.988,0-30.2-3.436-48.308,0-3.842,0,3.3.879,1.1-.879-4.406-1.718-9.887-.879-20.312,0-.538,1.758,1.639,1.758,1.1-.879-29.1-4.316-41.162-3.437-74.1,0-1.076.839-71.335.839-69.67,1.718-8.248,7.712-23.053,7.712-27.458,0,4.405.879-57.068-.839-85.064-.879-1.1,0-14.8-.879-38.959,0,0-5.155-27.97-4.276-19.748-1.718-23.616.879-12.09-1.718-27.433-.839-1.665-1.718-1.665-1.718-3.3-.839-5.481,5.155-4.38,5.155-15.906.839,9.323,0-8.248.839,2.741,3.436-25.255-2.557-32.94-3.436-39.522-.839,5.481.879-25.793.879-26.331,0-3.3-5.155-10.988-5.155-15.368-3.4,0-76.2-1.1-78.8.538,14.585.564,13.706,0,28.291,0-16.263.564-33.406,0-16.263-1.1-8.591-1.076-32.567,1.1-23.136-1.076-13.706,2.741-165.309,0-170.464-.564-31.1,0-46.56,3.511-76.494,2.853-1.154-.025-30.556-3.391-48.537-3.955,4.276.564-7.712-.538-6.873-.538-11.987-1.1-47.95.538-64.214.538-5.155,0-6.873,1.1-17.142,1.1,2.557-.538-.879,1.1-17.142,1.1-1.718,0-232.96-.538-254.377-2.2,6.873,0-53.105,6.045-58.22,5.481,2.557.564-9.43-2.741-36.842-3.279-9.43-.538-235.557-.538-237.275-.538-6.833,0-51.387-1.1-101.895,0-.879,3.279,4.276,49.922,5.115,55.966,1.718-9.323-7.672,77.38-6.833,64.752,0,6.583,5.994,28,5.115,34.041,3.436-4.943-5.954,20.85-5.115,30.173-.839.538-.839,24.692-.839,25.793-.879,18.647,7.672,83.963,5.954,89.444-2.557,1.1-8.551,45-6.833,53.251-.839-2.766,0,9.861,0,16.444-.839,19.774,3.436,33.477,2.557,43.9.879,2.2-6.833,80.12-7.712,81.785,0,8.76,11.148,20.312,11.148,21.387,0,1.1,1.718,1.1,1.718,2.741,0,7.684-6.833,17.033-6.833,27.458,0,7.121,1.678,32.914,1.678,35.117,0,9.887-4.276,32.939-4.276,34.579S6.873,739.6,6.034,745.644c0,1.1-6.034,17.008-6.034,19.748,1.718,0,48.83,7.121,64.254,6.583" fill="#d3ba91" fill-rule="evenodd"/>
</svg>
