<svg xmlns="http://www.w3.org/2000/svg" width="397.172" height="386.945" viewBox="0 0 397.172 386.945">
  <path id="shape_E_green" d="M26.32,391.3c.873-.717,21.747-.915,25-.879.124.028,16.24,1.428,25.934,1.513.889.184,22.981-2.1,38.5-1.864,6.969.33,24.7-1.014,34.96-.522,1.471-.126,24.157-.444,44.038-.253a34.687,34.687,0,0,0,5.437,1.113,13.066,13.066,0,0,1,2.018-.078,30.322,30.322,0,0,0,9.209-1.753c3.461-.3,3.454.964,6.907.69.24.014,1.983-1.31,2.468-1.31,23.9.177,23.889,1.324,47.793,1.168,2.588-.021,2.546-1.541,5.134-1.52,4.346.028,4.241,4.018,8.584,4.1,27.975.535,28.037-.858,56.021-.647s61.151-1.957,61.159-1.95-.458-6.1-.357-10.365c.225-1.042,1.9-30.213,2.13-59.355.035-4.286-1.374-8.557-1.354-12.737.015-2.042,1.478-4.061,1.494-6.052.144-22.148-.485-40.17-.291-40.036-.954-5.545.035-15.074-1.327-24.167.217-2.006.244,1.711.489.64-.458-2.308-.574-5.115-.369-10.275.019-.3.493.895.493.6-.116-14.5-1.281-20.719-.982-37-.007-.655.284-35.82.314-34.9.361-4.257,2.4-11.647,2.441-13.941-.136,2.364.28-28.29-.392-42.485-.043-.549.167-7.417-.05-19.317,0-.219-1.82-14.025-1.5-10.085-.493-11.745.2-5.883-.73-13.645-.05-.915-.326-.753-.318-1.675-.38-2.639,1.622-2.1,1.513-8.036.353,4.87-.035-4.039.435,1.422.912-12.471-.958-16.411-1.2-19.62-.38,2.688.183-13.054.218-13.385.132-1.4-1.622-5.468-1.529-7.481-1.25-.063-25.5-.71-26.28.127a94.412,94.412,0,0,0,9.546.162c-5.514.225-11.339-.119-5.425-.76-2.852-.351-10.866.591-7.9-.316C364.292,7.579,324.279,8,321.171,8.213,318.1,8.114,314.08,6.27,312.2,6c-10.695.1-15.732,1.865-26.7,1.47a96.916,96.916,0,0,0-14.707-1.942c1.42.36-2.468-.26-2.115-.428-3.962-.345-15.946.274-21.491.5-1.746-.2-2.157.514-5.46.556.854-.415-.481.352-5.77.478-.706-.176-18.355,1.809-26.117,1.485-.4.084-50.961-1.942-58.275-2.583,2.422-.133-17.471,3.048-19.3,2.822,1.056.029-2.93-1.449-12.138-1.857-3.2-.218-5.553,1.491-3.369,1.393-29.547.007-60.806.238-59.5.26A38.223,38.223,0,0,1,47.3,6.13a33.182,33.182,0,0,1-5.829.09c-2.018.008-16.939-.548-33.575.05C7.693,7.917,9.346,31.2,9.47,34.413c.535-4.707-2.379,38.721-2.235,32.246-.07,3.378,1.971,13.955,1.739,16.974,1.122-2.28-2.014,10.43-1.665,15.131-.38.3-.427,12.386-.443,13.082-.132,9.3,2.813,42,2.15,44.547-.881.662-2.805,22.527-2.247,26.778-.284-1.549-.194,4.8-.2,8.05-.186,10.05,1.222,16.876,1.063,21.95.345,1.239-2.305,40.149-2.492,41-.182,4.49,3.415,10.3,3.415,10.605,0,.647.672.676.68,1.373.007,3.891-2.325,8.564-2.317,13.765.008,3.708.594,16.629.6,17.615.008,4.99-1.249,16.481-1.249,17.431,0,.7.982,60.051.64,63.012-.015.542-1.867,8.438-1.909,9.973C5.431,387.953,21.135,391.351,26.32,391.3Z" transform="translate(-5 -5.001)" fill="#6b7c43"/>
</svg>
