<svg xmlns="http://www.w3.org/2000/svg" width="1320.984" height="512.998" viewBox="0 0 1320.984 512.998">
  <path id="shape_backgnd" d="M70.77,511.911c2.817-.73,137.711.73,169.8,1.087,2.817,0,76.4-2.9,127.369-2.548,23.59.374,276.391.374,281.144.374h6.6c15.1,0,251.877,1.817,266,1.817,93.392.73,93.392-1.087,186.784-.73,93.392,0,203.772-2.9,203.772-2.9s-1.892-8.017-1.892-13.469c.968-1.461,6.6-40.034,7.57-78.963,0-5.469-4.753-11.295-4.753-16.747,0-2.548,4.753-5.452,4.753-8,.924-29.486-.968-53.129-.968-53.129-2.817-7.287,0-20.025-3.785-32.034,0-2.548,0,2.191.968.73-.968-2.921-1.892-6.556-.968-13.469,0-.357,1.937,1.087,1.937.73-.969-19.3-4.753-27.3-3.785-49.138,0-.713.924-47.3.924-46.2,1.892-5.469,8.494-15.287,8.494-18.208,0,2.921.968-37.843-.924-56.407-.968-.73,0-9.817-.968-25.834,0,0-5.677-18.548-4.709-13.1-1.892-15.66.969-8.017-1.892-18.191-.924-1.1-1.892-1.1-1.892-2.191-.924-3.635,5.677-2.9,5.677-10.548.924,6.183,0-5.469.924,1.817,3.785-16.747-2.817-21.843-3.785-26.208-.924,3.635.968-17.1.968-17.461,0-2.191-5.677-7.287-5.677-10.191-3.741,0-83.93-.73-86.79.357,16.064.374,15.1,0,31.16,0-17.913.374-36.794,0-17.913-.73-9.463-.713-35.869.73-25.483-.713-15.1,1.817-182.075,0-187.752-.374-34.249,0-51.282,2.328-84.251,1.892-1.271-.017-33.655-2.249-53.46-2.622,4.709.374-8.494-.357-7.57-.357-13.2-.73-52.814.357-70.726.357-5.677,0-7.57.73-18.881.73,2.817-.357-.968.73-18.881.73-1.892,0-256.586-.357-280.176-1.461,7.57,0-58.491,4.008-64.124,3.635,2.817.374-10.387-1.817-40.578-2.174-10.387-.357-259.447-.357-261.339-.357-7.526,0-56.6-.73-112.229,0-.968,2.174,4.709,33.1,5.633,37.112,1.892-6.183-8.45,51.312-7.526,42.938,0,4.365,6.6,18.565,5.633,22.573,3.785-3.278-6.558,13.826-5.633,20.008-.924.357-.924,16.374-.924,17.1-.968,12.365,8.45,55.677,6.558,59.312-2.817.73-9.418,29.843-7.526,35.312-.924-1.834,0,6.539,0,10.9-.924,13.112,3.785,22.2,2.817,29.112C9.462,277.551.968,329.219,0,330.323c0,5.809,12.279,13.469,12.279,14.182,0,.73,1.892.73,1.892,1.817,0,5.1-7.526,11.3-7.526,18.208,0,4.722,1.848,21.826,1.848,23.287,0,6.556-4.709,21.843-4.709,22.93s3.785,79.694,2.861,83.7c0,.73-6.646,11.278-6.646,13.1,1.892,0,53.782,4.722,70.77,4.365" transform="translate(0 0)" fill="#fcf9f4" fill-rule="evenodd"/>
</svg>
