<svg xmlns="http://www.w3.org/2000/svg" width="183.998" height="183.999" viewBox="0 0 183.998 183.999">
  <path id="shape_E_marroon" d="M9.857,183.609c.392-.262,10.121-.39,11.562-.39.135,0,7.62.652,12.089.78.392,0,10.642-1.042,17.741-.914,3.286.134,11.433-.518,16.294-.262.656,0,11.169-.256,20.365-.128a12.767,12.767,0,0,0,2.5.524h.92a16.437,16.437,0,0,0,4.334-.786c1.575-.262,1.575.39,3.151.262.135,0,.92-.652,1.183-.652,11.041.128,11.041.652,22.075.652,1.183-.128,1.183-.78,2.366-.78,2.1,0,1.974,1.956,3.942,1.956,13.008.262,13.008-.39,26.017-.262,13.008,0,28.383-1.042,28.383-1.042s-.264-2.875-.264-4.831c.135-.524.92-14.359,1.054-28.322,0-1.962-.662-4.051-.662-6.007,0-.914.662-1.956.662-2.869.129-10.576-.135-19.056-.135-19.056-.392-2.614,0-7.183-.527-11.49,0-.914,0,.786.135.262a24.468,24.468,0,0,1-.135-4.831c0-.128.27.39.27.262-.135-6.921-.662-9.79-.527-17.624,0-.256.129-16.967.129-16.571.264-1.962,1.183-5.483,1.183-6.531,0,1.048.135-13.573-.129-20.232-.135-.262,0-3.521-.135-9.266,0,0-.791-6.653-.656-4.7-.264-5.617.135-2.875-.264-6.525-.129-.4-.264-.4-.264-.786-.129-1.3.791-1.042.791-3.783.129,2.218,0-1.962.129.652a28.713,28.713,0,0,0-.527-9.4c-.129,1.3.135-6.135.135-6.263,0-.786-.791-2.614-.791-3.655-.521,0-11.69-.262-12.089.128,2.238.134,2.1,0,4.34,0-2.5.134-5.125,0-2.5-.262-1.318-.256-5,.262-3.549-.256-2.1.652-20.628.78-22.075.908-1.312,0-3.286-.908-4.077-1.042-4.99,0-7.356.914-12.346.652-1.054-.128-4.077-.78-6.835-.914.656.134-1.183-.128-1.054-.128-1.839-.262-7.356.128-9.851.128-.791,0-1.054.262-2.63.262.392-.128-.135.262-2.63.262-.264,0-8.539.914-12.089.78-.129,0-23.651-.908-26.936-1.3,1.054,0-8.147,1.438-8.932,1.3a18.856,18.856,0,0,0-5.652-.78c-1.447-.128-2.63.652-1.575.652-13.67,0-28.12.128-27.6.128A16.136,16.136,0,0,1,19.58.481a20.057,20.057,0,0,1-2.63.134C15.9.615,9.067.353,1.318.615c-.135.78.656,11.874.785,13.311.264-2.218-1.177,18.4-1.048,15.4,0,1.566.92,6.659.785,8.1.527-1.176-.913,4.959-.785,7.177-.129.128-.129,5.873-.129,6.135C.791,55.169,2.1,70.7,1.839,72.008,1.447,72.27.527,82.712.791,84.674a32.442,32.442,0,0,0,0,3.911c-.129,4.7.527,7.962.392,10.442C1.318,99.55.135,118.083,0,118.479c0,2.084,1.71,4.831,1.71,5.087s.264.262.264.652c0,1.828-1.048,4.051-1.048,6.531,0,1.694.257,7.828.257,8.352,0,2.352-.656,7.834-.656,8.224s.527,28.584.4,30.022c0,.262-.926,4.045-.926,4.7.264,0,7.491,1.694,9.857,1.566" transform="translate(0 0)" fill="#a04830" fill-rule="evenodd"/>
</svg>
