<svg xmlns="http://www.w3.org/2000/svg" width="259.446" height="259.449" viewBox="0 0 259.446 259.449">
  <path id="shape_E_marroon" d="M13.9,258.9c.553-.369,14.271-.55,16.3-.55.19,0,10.744.919,17.046,1.1.553,0,15.006-1.469,25.016-1.289,4.633.189,16.121-.73,22.976-.369.925,0,15.749-.361,28.715-.18a18,18,0,0,0,3.527.739h1.3a23.176,23.176,0,0,0,6.111-1.108c2.222-.369,2.222.55,4.443.369.19,0,1.3-.919,1.668-.919,15.568.18,15.568.919,31.127.919,1.668-.18,1.668-1.1,3.337-1.1,2.965,0,2.783,2.757,5.558,2.757,18.343.369,18.343-.55,36.685-.369,18.343,0,40.022-1.469,40.022-1.469s-.372-4.055-.372-6.812c.19-.739,1.3-20.247,1.487-39.936,0-2.766-.934-5.712-.934-8.47,0-1.289.934-2.757.934-4.046.181-14.913-.19-26.87-.19-26.87-.553-3.685,0-10.128-.743-16.2,0-1.289,0,1.108.19.369a34.5,34.5,0,0,1-.19-6.812c0-.18.38.55.38.369-.19-9.758-.934-13.8-.743-24.852,0-.361.182-23.924.182-23.365.372-2.766,1.668-7.731,1.668-9.209,0,1.478.19-19.139-.182-28.528-.19-.369,0-4.965-.19-13.066,0,0-1.115-9.381-.925-6.623-.372-7.92.19-4.055-.372-9.2-.182-.558-.372-.558-.372-1.108-.182-1.838,1.115-1.469,1.115-5.335.182,3.127,0-2.766.182.919.743-8.47-.553-11.047-.743-13.255-.182,1.838.19-8.65.19-8.831,0-1.108-1.115-3.685-1.115-5.154-.735,0-16.484-.369-17.046.18,3.155.189,2.965,0,6.12,0-3.518.189-7.226,0-3.518-.369-1.858-.361-7.045.369-5-.361-2.965.919-29.087,1.1-31.127,1.28-1.85,0-4.633-1.28-5.748-1.469-7.036,0-10.373,1.289-17.409.919-1.487-.18-5.748-1.1-9.638-1.289.925.189-1.668-.18-1.487-.18-2.593-.369-10.373.18-13.891.18-1.115,0-1.487.369-3.708.369.553-.18-.19.369-3.708.369-.372,0-12.041,1.289-17.046,1.1-.182,0-33.349-1.28-37.982-1.838C97.28.308,84.3,2.335,83.2,2.146c.553.189-2.04-.919-7.97-1.1-2.04-.18-3.708.919-2.222.919-19.276,0-39.65.18-38.915.18A22.752,22.752,0,0,1,27.609.678,28.281,28.281,0,0,1,23.9.867C22.423.867,12.784.5,1.858.867c-.19,1.1.925,16.742,1.106,18.77.372-3.127-1.66,25.951-1.478,21.716,0,2.208,1.3,9.389,1.106,11.416.743-1.658-1.288,6.992-1.106,10.119-.182.18-.182,8.281-.182,8.65-.19,6.254,1.66,28.159,1.288,30-.553.369-1.85,15.093-1.478,17.859-.182-.928,0,3.307,0,5.515-.182,6.632.743,11.227.553,14.724C1.858,140.372.19,166.5,0,167.062c0,2.938,2.412,6.812,2.412,7.173s.372.369.372.919c0,2.577-1.478,5.713-1.478,9.209,0,2.388.363,11.038.363,11.777,0,3.316-.925,11.047-.925,11.6s.743,40.305.562,42.333c0,.369-1.305,5.7-1.305,6.623.372,0,10.563,2.388,13.9,2.208" transform="translate(0 0)" fill="#a04830" fill-rule="evenodd"/>
</svg>
