<svg xmlns="http://www.w3.org/2000/svg" width="731.491" height="661.01" viewBox="0 0 731.491 661.01">
  <path id="shape_beije" d="M39.189,659.609c1.56-.941,76.257.941,94.024,1.4,1.56,0,42.308-3.742,70.53-3.283,13.063.482,153.051.482,155.683.482h3.656c8.359,0,139.476,2.342,147.3,2.342,51.716.941,51.716-1.4,103.431-.941,51.716,0,112.838-3.742,112.838-3.742s-1.048-10.33-1.048-17.356c.536-1.882,3.656-51.584,4.192-101.746,0-7.047-2.632-14.554-2.632-21.579,0-3.283,2.632-7.025,2.632-10.308.512-37.993-.536-68.458-.536-68.458-1.56-9.389,0-25.8-2.1-41.276,0-3.283,0,2.823.536.941a79.511,79.511,0,0,1-.536-17.355c0-.46,1.072,1.4,1.072.941-.536-24.862-2.632-35.17-2.1-63.315,0-.919.512-60.952.512-59.529,1.048-7.047,4.7-19.7,4.7-23.461,0,3.764.536-48.761-.512-72.682-.536-.941,0-12.65-.536-33.288,0,0-3.144-23.9-2.608-16.874-1.048-20.179.536-10.33-1.048-23.44-.512-1.423-1.048-1.423-1.048-2.823-.512-4.684,3.144-3.742,3.144-13.591.512,7.966,0-7.047.512,2.342,2.1-21.579-1.56-28.145-2.1-33.77-.512,4.684.536-22.039.536-22.5,0-2.823-3.144-9.389-3.144-13.131-2.071,0-46.476-.941-48.06.46,8.9.481,8.359,0,17.255,0-9.919.481-20.374,0-9.919-.941-5.24-.919-19.863.941-14.111-.919-8.359,2.342-100.823,0-103.967-.481-18.965,0-28.4,3-46.654,2.438-.7-.022-18.636-2.9-29.6-3.379,2.608.481-4.7-.46-4.192-.46-7.311-.941-29.245.46-39.164.46-3.144,0-4.192.941-10.455.941,1.56-.46-.536.941-10.455.941-1.048,0-142.084-.46-155.147-1.882,4.192,0-32.389,5.165-35.509,4.684,1.56.481-5.752-2.342-22.47-2.8-5.752-.46-143.668-.46-144.716-.46-4.167,0-31.341-.941-62.146,0-.536,2.8,2.608,42.655,3.12,47.82,1.048-7.966-4.679,66.117-4.167,55.327,0,5.625,3.656,23.921,3.12,29.086,2.1-4.224-3.631,17.815-3.12,25.781-.512.46-.512,21.1-.512,22.039C3.144,198.194,8.359,254,7.311,258.686c-1.56.941-5.215,38.453-4.167,45.5-.512-2.364,0,8.426,0,14.051-.512,16.9,2.1,28.6,1.56,37.512C5.24,357.631.536,424.207,0,425.63c0,7.485,6.8,17.355,6.8,18.274,0,.941,1.048.941,1.048,2.342,0,6.566-4.167,14.554-4.167,23.461,0,6.084,1.024,28.123,1.024,30.005,0,8.448-2.608,28.145-2.608,29.546s2.1,102.688,1.584,107.853c0,.941-3.68,14.532-3.68,16.874,1.048,0,29.782,6.084,39.189,5.624" transform="translate(0 0)" fill="#f7eedc" fill-rule="evenodd"/>
</svg>
