<svg xmlns="http://www.w3.org/2000/svg" width="554.001" height="554" viewBox="0 0 554.001 554">
  <path id="shape_E_beije" d="M29.68,552.826c1.181-.789,57.754.789,71.21,1.174,1.181,0,32.043-3.137,53.417-2.751,9.893.4,115.914.4,117.908.4h2.769c6.331,0,105.633,1.963,111.558,1.963,39.167.789,39.167-1.174,78.334-.789,39.167,0,85.459-3.136,85.459-3.136s-.794-8.658-.794-14.546c.406-1.577,2.769-43.233,3.175-85.275,0-5.906-1.993-12.2-1.993-18.086,0-2.751,1.993-5.888,1.993-8.639.388-31.843-.406-57.376-.406-57.376-1.181-7.869,0-21.626-1.587-34.594,0-2.752,0,2.366.406.789a73.668,73.668,0,0,1-.406-14.546c0-.385.812,1.174.812.789-.406-20.837-1.994-29.477-1.588-53.065,0-.77.388-51.084.388-49.892.794-5.906,3.562-16.508,3.562-19.663,0,3.155.406-40.867-.388-60.916-.406-.789,0-10.6-.406-27.9,0,0-2.381-20.03-1.975-14.142-.794-16.912.406-8.658-.794-19.645-.388-1.192-.794-1.192-.794-2.366-.388-3.925,2.381-3.137,2.381-11.391.388,6.677,0-5.906.388,1.963,1.587-18.086-1.181-23.589-1.587-28.3-.388,3.925.406-18.471.406-18.856,0-2.366-2.381-7.869-2.381-11.006-1.569,0-35.2-.789-36.4.385,6.737.4,6.331,0,13.068,0-7.512.4-15.431,0-7.512-.789-3.968-.77-15.043.789-10.687-.77-6.331,1.963-76.36,0-78.741-.4-14.364,0-21.507,2.515-35.334,2.043-.533-.018-14.114-2.429-22.42-2.832,1.975.4-3.562-.385-3.175-.385-5.537-.789-22.149.385-29.661.385-2.381,0-3.175.789-7.918.789,1.181-.385-.406.789-7.918.789-.794,0-107.608-.385-117.5-1.577,3.175,0-24.53,4.329-26.893,3.925,1.181.4-4.356-1.963-17.018-2.348-4.356-.385-108.808-.385-109.6-.385-3.156,0-23.737-.789-47.067,0C3.562,4.2,5.943,37.6,6.331,41.929c.794-6.677-3.544,55.413-3.156,46.37,0,4.714,2.769,20.049,2.363,24.377,1.587-3.54-2.75,14.931-2.363,21.608-.388.385-.388,17.682-.388,18.471-.406,13.353,3.544,60.127,2.75,64.052-1.181.789-3.95,32.228-3.156,38.134-.388-1.981,0,7.062,0,11.776-.388,14.161,1.587,23.974,1.181,31.439C3.968,299.735.406,355.533,0,356.725,0,363,5.15,371.271,5.15,372.041c0,.789.794.789.794,1.963,0,5.5-3.156,12.2-3.156,19.663,0,5.1.775,23.57.775,25.148,0,7.08-1.975,23.589-1.975,24.763s1.587,86.064,1.2,90.392c0,.789-2.787,12.179-2.787,14.142.794,0,22.555,5.1,29.68,4.714" transform="translate(0 0)" fill="#d3ba91" fill-rule="evenodd"/>
</svg>
